<?xml version="1.0" standalone="no"?><!DOCTYPE svg PUBLIC "-//W3C//DTD SVG 1.1//EN" "http://www.w3.org/Graphics/SVG/1.1/DTD/svg11.dtd"><svg t="1693300261908" class="icon" viewBox="0 0 1024 1024" version="1.1" xmlns="http://www.w3.org/2000/svg" p-id="862" xmlns:xlink="http://www.w3.org/1999/xlink" width="200" height="200"><path d="M556.6 364.4c24.9 0 45.1-20.2 45-45v-28.7c0-24.8-20.2-45-45-45s-45 20.2-45 45v28.7c0 24.8 20.1 45 45 45z" p-id="863"></path><path d="M896.5 262.4L784.2 132c-24-28-58.8-43.9-95.7-43.9H224.4C154.7 88.1 98 144.8 98 214.5v596.4c0 69.6 56.7 126.3 126.3 126.3h576.5c69.6 0 126.3-56.7 126.3-126.3v-466c0.1-30.3-10.8-59.6-30.6-82.5z m-258.3-81.2v253.4H387V181.2h251.2z m199 629.7c0 20-16.2 36.2-36.2 36.2H224.4c-20 0-36.2-16.2-36.2-36.2V214.5c0-20 16.2-36.2 36.2-36.2H297v301.4c0 24.8 20.2 45 45 45h341.2c24.9 0 45-20.2 45-45V205l100.2 116.2c5.7 6.6 8.8 14.9 8.8 23.6v466.1z" p-id="864"></path></svg>