<?xml version="1.0" standalone="no"?><!DOCTYPE svg PUBLIC "-//W3C//DTD SVG 1.1//EN" "http://www.w3.org/Graphics/SVG/1.1/DTD/svg11.dtd"><svg t="1693300187803" class="icon" viewBox="0 0 1024 1024" version="1.1" xmlns="http://www.w3.org/2000/svg" p-id="6568" xmlns:xlink="http://www.w3.org/1999/xlink" width="200" height="200"><path d="M341.333333 832v-21.333333h-85.333333c-23.466667 0-42.666667-19.2-42.666667-42.666667v-85.333333H128v128c0 46.933333 38.4 85.333333 85.333333 85.333333h128v-64zM192 341.333333h21.333333v-85.333333c0-23.466667 19.2-42.666667 42.666667-42.666667h85.333333V128h-128c-46.933333 0-85.333333 38.4-85.333333 85.333333v128h64zM832 682.666667h-21.333333v85.333333c0 23.466667-19.2 42.666667-42.666667 42.666667h-85.333333v85.333333h128c46.933333 0 85.333333-38.4 85.333333-85.333333v-128h-64zM810.666667 128h-128v85.333333h85.333333c23.466667 0 42.666667 19.2 42.666667 42.666667v85.333333h85.333333v-128c0-46.933333-38.4-85.333333-85.333333-85.333333zM298.666667 341.333333v341.333334c0 23.466667 19.2 42.666667 42.666666 42.666666h341.333334c23.466667 0 42.666667-19.2 42.666666-42.666666V341.333333c0-23.466667-19.2-42.666667-42.666666-42.666666H341.333333c-23.466667 0-42.666667 19.2-42.666666 42.666666z m320 298.666667H405.333333c-12.8 0-21.333333-8.533333-21.333333-21.333333V405.333333c0-12.8 8.533333-21.333333 21.333333-21.333333h213.333334c12.8 0 21.333333 8.533333 21.333333 21.333333v213.333334c0 12.8-8.533333 21.333333-21.333333 21.333333z" fill="#8a8a8a" p-id="6569"></path></svg>